<svg id="e7iA6BgNdIn1" xmlns="http://www.w3.org/2000/svg" xmlns:xlink="http://www.w3.org/1999/xlink" viewBox="0 0 594 137" shape-rendering="geometricPrecision" text-rendering="geometricPrecision"><defs><filter id="e7iA6BgNdIn19-filter" x="-150%" width="400%" y="-150%" height="400%"><feGaussianBlur id="e7iA6BgNdIn19-filter-drop-shadow-0-blur" in="SourceAlpha" stdDeviation="1,1"/><feOffset id="e7iA6BgNdIn19-filter-drop-shadow-0-offset" dx="0" dy="1" result="tmp"/><feFlood id="e7iA6BgNdIn19-filter-drop-shadow-0-flood" flood-color="#000"/><feComposite id="e7iA6BgNdIn19-filter-drop-shadow-0-composite" operator="in" in2="tmp"/><feMerge id="e7iA6BgNdIn19-filter-drop-shadow-0-merge" result="result"><feMergeNode id="e7iA6BgNdIn19-filter-drop-shadow-0-merge-node-1"/><feMergeNode id="e7iA6BgNdIn19-filter-drop-shadow-0-merge-node-2" in="SourceGraphic"/></feMerge></filter></defs><path d="M23.1076,42.464v-5.136h-3.92v5.136h-1.584v-11.024h1.584v4.584h3.92v-4.584h1.584v11.024h-1.584Zm8.7778-8.432v7.264h2.344v1.168h-6.448v-1.168h2.568v-6.096h-2.488v-1.168h4.024ZM30.7414,30c.32,0,.576.0987.768.296.1973.1973.296.4373.296.72c0,.2933-.0987.5413-.296.744-.192.1973-.448.296-.768.296-.3147,0-.5707-.0987-.768-.296-.192-.2027-.288-.4507-.288-.744c0-.2827.096-.5227.288-.72.1973-.1973.4533-.296.768-.296ZM52.8729,40.528c0,.336.0533.5813.16.736.1067.1493.2747.2613.504.336l-.36,1.056c-.384-.048-.7173-.1627-1-.344s-.4933-.4587-.632-.832c-.304.3893-.688.6853-1.152.888-.464.1973-.968.296-1.512.296-.848,0-1.5173-.24-2.008-.72s-.736-1.112-.736-1.896c0-.88.3413-1.5547,1.024-2.024.688-.4693,1.6747-.704,2.96-.704h1.224v-.64c0-.5813-.1733-.9947-.52-1.24-.3413-.2453-.8187-.368-1.432-.368-.2773,0-.608.0347-.992.104s-.792.1787-1.224.328l-.392-1.12c.5227-.1973,1.0213-.3387,1.496-.424.48-.0853.928-.128,1.344-.128c1.088,0,1.9013.248,2.44.744.5387.4907.808,1.1653.808,2.024v3.928Zm-3.56.984c.3947,0,.7733-.1013,1.136-.304s.6613-.4853.896-.848v-2.04h-1.12c-.8907,0-1.5227.152-1.896.456-.3733.2987-.56.7093-.56,1.232c0,.4907.128.864.384,1.12s.6427.384,1.16.384ZM59.7147,30.64v9.648c0,.4053.1253.6933.376.864.2506.1653.5733.248.968.248.2506,0,.488-.0267.712-.08s.448-.1227.672-.208l.4,1.096c-.2347.1173-.528.2213-.88.312-.352.096-.7494.144-1.192.144-.7894,0-1.4187-.2213-1.888-.664-.4694-.4427-.704-1.0507-.704-1.824v-8.368h-2.568v-1.168h4.104Zm9.5937,0v9.648c0,.4053.1253.6933.376.864.2507.1653.5733.248.968.248.2507,0,.488-.0267.712-.08s.448-.1227.672-.208l.4,1.096c-.2347.1173-.528.2213-.88.312-.352.096-.7493.144-1.192.144-.7893,0-1.4187-.2213-1.888-.664s-.704-1.0507-.704-1.824v-8.368h-2.568v-1.168h4.104Zm7.9298,10.544c0-.272.064-.5173.192-.736.128-.224.3013-.4.52-.528.224-.128.472-.192.744-.192.2826,0,.536.064.76.192s.4.304.528.528c.128.2187.192.464.192.736s-.064.5227-.192.752c-.128.224-.304.4-.528.528-.224.1333-.4774.2-.76.2-.272,0-.52-.0667-.744-.2-.2187-.128-.392-.304-.52-.528-.128-.2293-.192-.48-.192-.752ZM101.122,31.44v1.24h-2.4243v8.536h2.4243v1.248h-6.4483v-1.248h2.424v-8.536h-2.424v-1.24h6.4483Zm18.907,9.088c0,.336.053.5813.16.736.107.1493.275.2613.504.336l-.36,1.056c-.384-.048-.717-.1627-1-.344s-.493-.4587-.632-.832c-.304.3893-.688.6853-1.152.888-.464.1973-.968.296-1.512.296-.848,0-1.517-.24-2.008-.72s-.736-1.112-.736-1.896c0-.88.341-1.5547,1.024-2.024.688-.4693,1.675-.704,2.96-.704h1.224v-.64c0-.5813-.173-.9947-.52-1.24-.341-.2453-.819-.368-1.432-.368-.277,0-.608.0347-.992.104s-.792.1787-1.224.328l-.392-1.12c.523-.1973,1.021-.3387,1.496-.424.48-.0853.928-.128,1.344-.128c1.088,0,1.901.248,2.44.744.539.4907.808,1.1653.808,2.024v3.928Zm-3.56.984c.395,0,.773-.1013,1.136-.304s.661-.4853.896-.848v-2.04h-1.12c-.891,0-1.523.152-1.896.456-.373.2987-.56.7093-.56,1.232c0,.4907.128.864.384,1.12s.643.384,1.16.384Zm12.61-7.68c.293,0,.565.064.816.192s.453.3627.608.704c.155.336.232.824.232,1.464v6.272h-1.4v-6.048c0-.4907-.032-.8427-.096-1.056-.059-.2187-.229-.328-.512-.328-.235,0-.467.072-.696.216s-.456.384-.68.72v6.496h-1.344v-6.048c0-.4907-.032-.8427-.096-1.056-.059-.2187-.229-.328-.512-.328-.24,0-.475.072-.704.216-.224.144-.448.384-.672.72v6.496h-1.4v-8.432h1.184l.096.944c.235-.3307.493-.6027.776-.816.288-.2187.637-.328,1.048-.328.32,0,.616.0773.888.232.277.1547.48.4427.608.864.229-.3253.491-.5893.784-.792s.651-.304,1.072-.304Z" fill="#e5e5e5"/><g><path d="M34.5616,90.5152h-11.5873l-2.3387,7.46h-3.6356l9.5249-29.266h4.7199l9.525,29.266h-3.8695l-2.3387-7.46ZM23.9311,87.4547h9.6737l-4.805-15.6425-4.8687,15.6425ZM32.3717,59.464l1.6158,3.0605-9.0784,3.3368-.9568-1.9128l8.4194-4.4845Z" fill="#fff"/><path d="M54.6153,66.5839v25.8654c0,1.1052.3402,1.8915,1.0205,2.3591.6945.4534,1.5875.6801,2.6789.6801.6803,0,1.3253-.0708,1.9347-.2125s1.219-.333,1.8285-.5739l.9567,2.6142c-.6095.2976-1.3678.5597-2.2749.7864-.893.2409-1.9064.3613-3.0403.3613-1.9844,0-3.5931-.5455-4.8263-1.6365-1.2331-1.1052-1.8497-2.6284-1.8497-4.5695v-22.8474h-6.8672v-2.8267h10.4391Z" fill="#fff"/><path d="M87.4256,93.0869c0,.8926.1488,1.5444.4465,1.9553.2976.4109.7583.7155,1.3819.9139l-.8717,2.5079c-.9638-.1275-1.8071-.4322-2.53-.9139-.7229-.4959-1.2473-1.2398-1.5733-2.2316-.8079,1.0343-1.8143,1.8207-3.0191,2.3591-1.2048.5243-2.5371.7864-3.997.7864-2.2395,0-4.0042-.6305-5.294-1.8916-1.2899-1.261-1.9348-2.9329-1.9348-5.0158c0-2.3095.9001-4.0806,2.7002-5.3133s4.401-1.8491,7.8027-1.8491h3.2955v-1.8703c0-1.6152-.4748-2.7558-1.4245-3.4218-.9355-.6801-2.2395-1.0201-3.912-1.0201-.7371,0-1.6017.0921-2.5938.2763-.9922.17-2.0694.4605-3.2317.8714l-.9355-2.6992c1.3749-.5101,2.6647-.8714,3.8695-1.0839c1.2048-.2126,2.3529-.3189,3.4443-.3189c2.7922,0,4.8829.6518,6.272,1.9554c1.4032,1.2893,2.1048,3.0463,2.1048,5.2708v10.733Zm-9.2485,2.6567c1.1055,0,2.1615-.2763,3.1679-.8289c1.0063-.5668,1.8355-1.3461,2.4875-2.3379v-5.7597h-3.2317c-2.4662,0-4.2096.4251-5.2302,1.2752-1.0063.8502-1.5095,1.9908-1.5095,3.4218c0,1.3886.3543,2.4442,1.063,3.1668.7229.7084,1.8072,1.0627,3.253,1.0627Z" fill="#fff"/><path d="M96.8914,97.9752v-22.3799h3.0403l.2763,3.103c.907-1.1477,2.041-2.0261,3.402-2.6354c1.375-.6234,2.707-.9352,3.997-.9352c2.197,0,3.791.581,4.784,1.7428c1.006,1.1619,1.509,2.7771,1.509,4.8458v16.2589h-3.572v-13.6235c0-1.5302-.085-2.7629-.255-3.6981-.17-.9493-.524-1.6365-1.063-2.0615-.538-.4393-1.375-.6589-2.509-.6589-.878,0-1.708.1913-2.487.5738-.766.3826-1.453.8643-2.063,1.4453-.595.5667-1.091,1.1406-1.488,1.7215v16.3014h-3.5716Z" fill="#fff"/><path d="M156.942,98.464c-2.311,0-4.323-.5597-6.038-1.679-1.701-1.1194-3.02-2.7984-3.955-5.0371-.936-2.2387-1.403-5.0441-1.403-8.4163c0-2.5221.333-4.7254.999-6.6098.68-1.8845,1.595-3.4573,2.743-4.7183c1.162-1.261,2.473-2.2033,3.933-2.8267c1.474-.6234,2.998-.9352,4.571-.9352c1.914,0,3.501.2763,4.763.8289c1.261.5384,2.466,1.3319,3.614,2.3804l-2.233,2.3166c-.892-.8359-1.835-1.4523-2.827-1.849-.978-.3967-2.077-.5951-3.296-.5951-1.063,0-2.09.2054-3.083.6163-.992.4109-1.885,1.084-2.678,2.0191-.78.921-1.404,2.1466-1.871,3.6769-.454,1.5302-.681,3.4288-.681,5.6959c0,2.8196.291,5.1149.872,6.8861.595,1.7711,1.467,3.0746,2.615,3.9106c1.162.8218,2.594,1.2327,4.295,1.2327c1.02,0,1.984-.1204,2.891-.3613.922-.2409,1.815-.588,2.679-1.0414v-8.9265h-5.762l-.446-3.0605h9.865v13.9423c-1.318.7084-2.721,1.3106-4.21,1.8065-1.488.4959-3.274.7439-5.357.7439Z" fill="#fff"/><path d="M189.412,93.0869c0,.8926.149,1.5444.446,1.9553.298.4109.759.7155,1.382.9139l-.872,2.5079c-.963-.1275-1.807-.4322-2.53-.9139-.722-.4959-1.247-1.2398-1.573-2.2316-.808,1.0343-1.814,1.8207-3.019,2.3591-1.205.5243-2.537.7864-3.997.7864-2.239,0-4.004-.6305-5.294-1.8916-1.29-1.261-1.935-2.9329-1.935-5.0158c0-2.3095.9-4.0806,2.7-5.3133c1.801-1.2327,4.401-1.8491,7.803-1.8491h3.296v-1.8703c0-1.6152-.475-2.7558-1.425-3.4218-.935-.6801-2.239-1.0201-3.912-1.0201-.737,0-1.602.0921-2.594.2763-.992.17-2.069.4605-3.231.8714l-.936-2.6992c1.375-.5101,2.665-.8714,3.87-1.0839c1.204-.2126,2.353-.3189,3.444-.3189c2.792,0,4.883.6518,6.272,1.9554c1.403,1.2893,2.105,3.0463,2.105,5.2708v10.733Zm-9.249,2.6567c1.106,0,2.162-.2763,3.168-.8289c1.006-.5668,1.836-1.3461,2.488-2.3379v-5.7597h-3.232c-2.466,0-4.21.4251-5.23,1.2752-1.007.8502-1.51,1.9908-1.51,3.4218c0,1.3886.355,2.4442,1.063,3.1668.723.7084,1.807,1.0627,3.253,1.0627Z" fill="#fff"/><path d="M202.449,78.507c.822-1.0768,1.765-1.9057,2.828-2.4866c1.077-.5951,2.261-.8927,3.551-.8927c1.998,0,3.614.4818,4.847,1.4453s2.133,2.3237,2.7,4.0806c.567,1.7428.851,3.7831.851,6.121c0,2.2529-.34,4.2649-1.021,6.036-.68,1.7569-1.679,3.1384-2.998,4.1444-1.304,1.006-2.919,1.509-4.847,1.509-2.594,0-4.628-.9352-6.102-2.8055l-.255,2.3167h-3.125v-31.3913l3.571-.4463v12.3694Zm5.06,17.0665c1.871,0,3.31-.7226,4.316-2.1678c1.007-1.4453,1.51-3.6627,1.51-6.6523c0-1.9554-.198-3.5777-.595-4.8671-.397-1.3035-.993-2.2741-1.786-2.9117-.78-.6518-1.744-.9776-2.892-.9776-1.247,0-2.346.3754-3.295,1.1264-.936.7368-1.708,1.5586-2.318,2.4654v11.0943c.581.8784,1.311,1.5798,2.19,2.104.893.5243,1.85.7864,2.87.7864Z" fill="#fff"/><path d="M224.587,97.9752v-2.7417h3.486v-16.8965h-3.486v-2.7417h6.208l.659,5.2921c.865-1.8419,1.913-3.2659,3.147-4.2719c1.233-1.006,2.863-1.509,4.89-1.509.623,0,1.176.0496,1.658.1488.496.085.999.1983,1.509.34l-1.041,3.188c-.468-.1275-.893-.2196-1.276-.2763-.383-.0708-.822-.1062-1.318-.1062-1.715,0-3.189.6092-4.422,1.8278-1.234,1.2185-2.219,3.0605-2.956,5.5259v9.479h4.55v2.7417h-11.608Zm14.627-14.8137v-4.867l.362-2.6992h3.082l-.51,7.5662h-2.934Z" fill="#fff"/><path d="M261.203,75.5953v19.5532h6.314v2.8267h-16.796v-2.8267h6.91v-16.7265h-6.697v-2.8267h10.269Zm-2.849-10.4779c.793,0,1.424.2409,1.892.7226.482.4818.723,1.0698.723,1.764c0,.7227-.241,1.3319-.723,1.8278-.468.4818-1.099.7227-1.892.7227-.751,0-1.368-.2409-1.85-.7227-.482-.4959-.723-1.1051-.723-1.8278c0-.6942.241-1.2822.723-1.764s1.099-.7226,1.85-.7226Z" fill="#fff"/><path d="M278.174,88.0498c.07,1.7286.404,3.1455.999,4.2507.595,1.091,1.382,1.8986,2.36,2.4229.978.5101,2.041.7651,3.189.7651s2.183-.17,3.104-.5101c.936-.34,1.892-.843,2.87-1.509l1.68,2.3592c-1.049.8218-2.247,1.4665-3.593,1.934-1.333.4676-2.7.7014-4.104.7014-2.168,0-4.018-.4888-5.549-1.4665-1.53-.9777-2.7-2.3379-3.508-4.0806-.793-1.757-1.19-3.7902-1.19-6.0998c0-2.267.404-4.279,1.212-6.0359.807-1.757,1.941-3.1385,3.401-4.1445s3.182-1.509,5.167-1.509c1.885,0,3.508.4464,4.868,1.339c1.361.8785,2.403,2.1395,3.126,3.7831.737,1.6294,1.105,3.5777,1.105,5.8447c0,.3826-.007.7439-.021,1.0839-.014.3259-.035.6164-.064.8714h-15.052Zm6.08-9.9891c-1.658,0-3.047.588-4.167,1.7641-1.106,1.176-1.736,2.9967-1.892,5.4621h11.672c-.042-2.3946-.567-4.194-1.573-5.3984-1.007-1.2185-2.353-1.8278-4.04-1.8278Z" fill="#fff"/><path d="M309.581,66.5839v25.8654c0,1.1052.34,1.8915,1.02,2.3591.695.4534,1.588.6801,2.679.6801.68,0,1.325-.0708,1.935-.2125.609-.1417,1.219-.333,1.828-.5739L318,97.3163c-.609.2976-1.368.5597-2.275.7864-.893.2409-1.906.3613-3.04.3613-1.985,0-3.593-.5455-4.826-1.6365-1.234-1.1052-1.85-2.6284-1.85-4.5695v-22.8474h-6.867v-2.8267h10.439Z" fill="#fff"/></g><g id="e7iA6BgNdIn15" transform="translate(-.5 0.395698)" opacity="0"><path d="M492.5,0.5h-492v135.688h492v-135.688Z" fill="#fbbf24" fill-opacity="0.05"/><path d="M492.5,0.5h-492v135.688h492v-135.688Z" fill="none" stroke="#fbbf24"/></g><g id="e7iA6BgNdIn18" transform="matrix(.999991-.00425 0.00425 0.999991-4.415429 15.990807)"><g filter="url(#e7iA6BgNdIn19-filter)"><path d="M511.545,63l-5.817-20.4066L525,51.8132l-8.818,3.1245L511.545,63Z" fill="#fbbf24"/><path d="M505.945,42.1452l-1.004-.4804.303,1.0632l5.817,20.4066.327,1.1443.593-1.0319l4.545-7.9025l8.644-3.0626l1.128-.3999-1.08-.517-19.273-9.2198Z" fill="none" stroke="#fbbf24"/></g><g transform="translate(1.278635 4.836021)"><g transform="translate(-.162692 0.284029)"><path d="M593,64h-67v38h67v-38Z" fill="#fbbf24"/><g><path d="M550.956,85.766h-3.27l-.66,2.106h-1.026l2.688-8.262h1.332l2.688,8.262h-1.092l-.66-2.106Zm-3-.864h2.73l-1.356-4.416-1.374,4.416ZM550.338,77l.456.864-2.562.942-.27-.54L550.338,77Z"/><path d="M556.615,79.01v7.302c0,.312.096.534.288.666.196.128.448.192.756.192.192,0,.374-.02.546-.06s.344-.094.516-.162l.27.738c-.172.084-.386.158-.642.222-.252.068-.538.102-.858.102-.56,0-1.014-.154-1.362-.462-.348-.312-.522-.742-.522-1.29v-6.45h-1.938v-.798h2.946Z"/><path d="M565.875,86.492c0,.252.042.436.126.552s.214.202.39.258l-.246.708c-.272-.036-.51-.122-.714-.258-.204-.14-.352-.35-.444-.63-.228.292-.512.514-.852.666-.34.148-.716.222-1.128.222-.632,0-1.13-.178-1.494-.534s-.546-.828-.546-1.416c0-.652.254-1.152.762-1.5s1.242-.522,2.202-.522h.93v-.528c0-.456-.134-.778-.402-.966-.264-.192-.632-.288-1.104-.288-.208,0-.452.026-.732.078-.28.048-.584.13-.912.246l-.264-.762c.388-.144.752-.246,1.092-.306s.664-.09.972-.09c.788,0,1.378.184,1.77.552.396.364.594.86.594,1.488v3.03Zm-2.61.75c.312,0,.61-.078.894-.234.284-.16.518-.38.702-.66v-1.626h-.912c-.696,0-1.188.12-1.476.36-.284.24-.426.562-.426.966c0,.392.1.69.3.894.204.2.51.3.918.3Z"/><path d="M568.546,87.872v-6.318h.858l.078.876c.256-.324.576-.572.96-.744.388-.176.764-.264,1.128-.264.62,0,1.07.164,1.35.492.284.328.426.784.426,1.368v4.59h-1.008v-3.846c0-.432-.024-.78-.072-1.044-.048-.268-.148-.462-.3-.582-.152-.124-.388-.186-.708-.186-.248,0-.482.054-.702.162-.216.108-.41.244-.582.408-.168.16-.308.322-.42.486v4.602h-1.008Z"/></g></g><path d="M593,64h-67v38h67v-38Z" fill="none" stroke="#fbbf24" stroke-width="2"/></g></g>
<script><![CDATA[
(function(s,i,u,o,c,w,d,t,n,x,e,p,a,b){w[o]=w[o]||{};w[o][s]=w[o][s]||[];w[o][s].push(i);e=d.createElementNS(n,t);e.async=true;e.setAttributeNS(x,'href',[u,s,'.','j','s','?','v','=',c].join(''));e.setAttributeNS(null,'src',[u,s,'.','j','s','?','v','=',c].join(''));p=d.getElementsByTagName(t)[0];p.parentNode.insertBefore(e,p);})('5c7f360c',{"root":"e7iA6BgNdIn1","version":"2022-05-04","animations":[{"elements":{"e7iA6BgNdIn15":{"opacity":[{"t":2600,"v":0},{"t":2900,"v":1}]},"e7iA6BgNdIn18":{"transform":{"data":{"r":-0.243481,"t":{"x":-556.656304,"y":-86.20261}},"keys":{"o":[{"t":0,"v":{"x":552.60217,"y":99.82711,"type":"corner"}},{"t":800,"v":{"x":287.610178,"y":65.1174,"type":"corner"}},{"t":1800,"v":{"x":287.610178,"y":65.1174,"type":"cusp","end":{"x":287.610178,"y":65.1174}}},{"t":2600,"v":{"x":170.322916,"y":113.437066,"type":"corner","start":{"x":170.322916,"y":113.437066}}},{"t":4600,"v":{"x":101.904092,"y":59.697368,"type":"corner","start":{"x":101.904092,"y":59.697368}}}],"s":[{"t":2400,"v":{"x":1,"y":1}},{"t":2600,"v":{"x":0.8,"y":0.8}},{"t":2800,"v":{"x":1,"y":1}}]}}}},"s":"MVDA1ZDk1M2M3ZThmOGVM3YjhlODM4OTg4M2ME1NDRkNGE0YTRhNDYzKYzdlODM4YzdmN2Q4ZXTgzODk4ODNjNTQ0YjYQ2UTNjODM4ZTdmOGMP3YjhlSDgzODk4ODhkKM2M1NDRhNDYzYzgwOMDM4Njg2UzNjNTRINGHI0NjNjN2I4NjhlN2YQ4Yzg4N2I4ZTdmM2M1WNDgwN2I4NjhkN2Y0NGjNjOGQ4YTdmN2ZON2FUzY0s1NDRiNDYzYzgNwOGE4ZDNjNTQ0Ykg0WYTRhTjk3"}],"options":"MVDAxMDg4MmY4MDgxNmBU3ZjgxMmY0NzJmNzkR3YzZlTTcxMmY4YQ|"},'https://cdn.svgator.com/ply/','__SVGATOR_PLAYER__','2022-05-04',window,document,'script','http://www.w3.org/2000/svg','http://www.w3.org/1999/xlink')
]]></script>
</svg>
