<svg width="594" height="137" viewBox="0 0 594 137" fill="none" xmlns="http://www.w3.org/2000/svg">
<path d="M237.658 80.5953C237.148 80.4536 236.645 80.3403 236.149 80.2553C235.667 80.1561 235.114 80.1065 234.491 80.1065C232.464 80.1065 230.834 80.6095 229.601 81.6155C228.367 82.6215 227.319 84.0455 226.454 85.8874L225.795 80.5953H219.587V83.337H223.073V100.233H219.587V102.975H231.195V100.233H226.645V90.7544C227.382 88.2891 228.367 86.4471 229.601 85.2286C230.834 84.01 232.308 83.4008 234.023 83.4008C234.519 83.4008 234.958 83.4362 235.341 83.507C235.724 83.5637 236.149 83.6558 236.617 83.7833L237.658 80.5953ZM237.658 80.5953H234.576L234.214 83.2945V88.1615H237.148L237.658 80.5953ZM18.1076 47.464V42.328H14.1876V47.464H12.6036V36.44H14.1876V41.024H18.1076V36.44H19.6916V47.464H18.1076ZM26.8854 39.032V46.296H29.2294V47.464H22.7814V46.296H25.3494V40.2H22.8614V39.032H26.8854ZM25.7414 35C26.0614 35 26.3174 35.0987 26.5094 35.296C26.7067 35.4933 26.8054 35.7333 26.8054 36.016C26.8054 36.3093 26.7067 36.5573 26.5094 36.76C26.3174 36.9573 26.0614 37.056 25.7414 37.056C25.4267 37.056 25.1707 36.9573 24.9734 36.76C24.7814 36.5573 24.6854 36.3093 24.6854 36.016C24.6854 35.7333 24.7814 35.4933 24.9734 35.296C25.1707 35.0987 25.4267 35 25.7414 35ZM47.8729 45.528C47.8729 45.864 47.9262 46.1093 48.0329 46.264C48.1396 46.4133 48.3076 46.5253 48.5369 46.6L48.1769 47.656C47.7929 47.608 47.4596 47.4933 47.1769 47.312C46.8942 47.1307 46.6836 46.8533 46.5449 46.48C46.2409 46.8693 45.8569 47.1653 45.3929 47.368C44.9289 47.5653 44.4249 47.664 43.8809 47.664C43.0329 47.664 42.3636 47.424 41.8729 46.944C41.3822 46.464 41.1369 45.832 41.1369 45.048C41.1369 44.168 41.4782 43.4933 42.1609 43.024C42.8489 42.5547 43.8356 42.32 45.1209 42.32H46.3449V41.68C46.3449 41.0987 46.1716 40.6853 45.8249 40.44C45.4836 40.1947 45.0062 40.072 44.3929 40.072C44.1156 40.072 43.7849 40.1067 43.4009 40.176C43.0169 40.2453 42.6089 40.3547 42.1769 40.504L41.7849 39.384C42.3076 39.1867 42.8062 39.0453 43.2809 38.96C43.7609 38.8747 44.2089 38.832 44.6249 38.832C45.7129 38.832 46.5262 39.08 47.0649 39.576C47.6036 40.0667 47.8729 40.7413 47.8729 41.6V45.528ZM44.3129 46.512C44.7076 46.512 45.0862 46.4107 45.4489 46.208C45.8116 46.0053 46.1102 45.7227 46.3449 45.36V43.32H45.2249C44.3342 43.32 43.7022 43.472 43.3289 43.776C42.9556 44.0747 42.7689 44.4853 42.7689 45.008C42.7689 45.4987 42.8969 45.872 43.1529 46.128C43.4089 46.384 43.7956 46.512 44.3129 46.512ZM54.7147 35.64V45.288C54.7147 45.6933 54.84 45.9813 55.0907 46.152C55.3413 46.3173 55.664 46.4 56.0587 46.4C56.3093 46.4 56.5467 46.3733 56.7707 46.32C56.9947 46.2667 57.2187 46.1973 57.4427 46.112L57.8427 47.208C57.608 47.3253 57.3147 47.4293 56.9627 47.52C56.6107 47.616 56.2133 47.664 55.7707 47.664C54.9813 47.664 54.352 47.4427 53.8827 47C53.4133 46.5573 53.1787 45.9493 53.1787 45.176V36.808H50.6107V35.64H54.7147ZM64.3084 35.64V45.288C64.3084 45.6933 64.4337 45.9813 64.6844 46.152C64.9351 46.3173 65.2577 46.4 65.6524 46.4C65.9031 46.4 66.1404 46.3733 66.3644 46.32C66.5884 46.2667 66.8124 46.1973 67.0364 46.112L67.4364 47.208C67.2017 47.3253 66.9084 47.4293 66.5564 47.52C66.2044 47.616 65.8071 47.664 65.3644 47.664C64.5751 47.664 63.9457 47.4427 63.4764 47C63.0071 46.5573 62.7724 45.9493 62.7724 45.176V36.808H60.2044V35.64H64.3084ZM72.2382 46.184C72.2382 45.912 72.3022 45.6667 72.4302 45.448C72.5582 45.224 72.7315 45.048 72.9502 44.92C73.1742 44.792 73.4222 44.728 73.6942 44.728C73.9768 44.728 74.2302 44.792 74.4542 44.92C74.6782 45.048 74.8542 45.224 74.9822 45.448C75.1102 45.6667 75.1742 45.912 75.1742 46.184C75.1742 46.456 75.1102 46.7067 74.9822 46.936C74.8542 47.16 74.6782 47.336 74.4542 47.464C74.2302 47.5973 73.9768 47.664 73.6942 47.664C73.4222 47.664 73.1742 47.5973 72.9502 47.464C72.7315 47.336 72.5582 47.16 72.4302 46.936C72.3022 46.7067 72.2382 46.456 72.2382 46.184ZM96.1217 36.44V37.68H93.6977V46.216H96.1217V47.464H89.6737V46.216H92.0977V37.68H89.6737V36.44H96.1217ZM115.029 45.528C115.029 45.864 115.082 46.1093 115.189 46.264C115.296 46.4133 115.464 46.5253 115.693 46.6L115.333 47.656C114.949 47.608 114.616 47.4933 114.333 47.312C114.05 47.1307 113.84 46.8533 113.701 46.48C113.397 46.8693 113.013 47.1653 112.549 47.368C112.085 47.5653 111.581 47.664 111.037 47.664C110.189 47.664 109.52 47.424 109.029 46.944C108.538 46.464 108.293 45.832 108.293 45.048C108.293 44.168 108.634 43.4933 109.317 43.024C110.005 42.5547 110.992 42.32 112.277 42.32H113.501V41.68C113.501 41.0987 113.328 40.6853 112.981 40.44C112.64 40.1947 112.162 40.072 111.549 40.072C111.272 40.072 110.941 40.1067 110.557 40.176C110.173 40.2453 109.765 40.3547 109.333 40.504L108.941 39.384C109.464 39.1867 109.962 39.0453 110.437 38.96C110.917 38.8747 111.365 38.832 111.781 38.832C112.869 38.832 113.682 39.08 114.221 39.576C114.76 40.0667 115.029 40.7413 115.029 41.6V45.528ZM111.469 46.512C111.864 46.512 112.242 46.4107 112.605 46.208C112.968 46.0053 113.266 45.7227 113.501 45.36V43.32H112.381C111.49 43.32 110.858 43.472 110.485 43.776C110.112 44.0747 109.925 44.4853 109.925 45.008C109.925 45.4987 110.053 45.872 110.309 46.128C110.565 46.384 110.952 46.512 111.469 46.512ZM124.079 38.832C124.372 38.832 124.644 38.896 124.895 39.024C125.146 39.152 125.348 39.3867 125.503 39.728C125.658 40.064 125.735 40.552 125.735 41.192V47.464H124.335V41.416C124.335 40.9253 124.303 40.5733 124.239 40.36C124.18 40.1413 124.01 40.032 123.727 40.032C123.492 40.032 123.26 40.104 123.031 40.248C122.802 40.392 122.575 40.632 122.351 40.968V47.464H121.007V41.416C121.007 40.9253 120.975 40.5733 120.911 40.36C120.852 40.1413 120.682 40.032 120.399 40.032C120.159 40.032 119.924 40.104 119.695 40.248C119.471 40.392 119.247 40.632 119.023 40.968V47.464H117.623V39.032H118.807L118.903 39.976C119.138 39.6453 119.396 39.3733 119.679 39.16C119.967 38.9413 120.316 38.832 120.727 38.832C121.047 38.832 121.343 38.9093 121.615 39.064C121.892 39.2187 122.095 39.5067 122.223 39.928C122.452 39.6027 122.714 39.3387 123.007 39.136C123.3 38.9333 123.658 38.832 124.079 38.832ZM29.5616 95.5152H17.9743L15.6356 102.975H12L21.5249 73.7092H26.2448L35.7697 102.975H31.9003L29.5616 95.5152ZM18.9311 92.4547H28.6048L23.7998 76.8122L18.9311 92.4547ZM27.3717 64.464L28.9875 67.5245L19.9091 70.8613L18.9523 68.9485L27.3717 64.464ZM49.6153 71.5839V97.4493C49.6153 98.5544 49.9555 99.3408 50.6358 99.8084C51.3303 100.262 52.2233 100.489 53.3147 100.489C53.995 100.489 54.64 100.418 55.2494 100.276C55.8589 100.134 56.4684 99.943 57.0779 99.7021L58.0346 102.316C57.4251 102.614 56.6668 102.876 55.7597 103.103C54.8667 103.344 53.8533 103.464 52.7194 103.464C50.735 103.464 49.1263 102.918 47.8931 101.827C46.66 100.722 46.0434 99.1991 46.0434 97.258V74.4106H39.1762V71.5839H49.6153ZM82.4256 98.0869C82.4256 98.9795 82.5744 99.6313 82.8721 100.042C83.1697 100.453 83.6304 100.758 84.254 100.956L83.3823 103.464C82.4185 103.336 81.5752 103.032 80.8523 102.55C80.1294 102.054 79.605 101.31 79.279 100.318C78.4711 101.353 77.4647 102.139 76.2599 102.678C75.0551 103.202 73.7228 103.464 72.2628 103.464C70.0234 103.464 68.2587 102.833 66.9689 101.572C65.679 100.311 65.0341 98.6395 65.0341 96.5566C65.0341 94.2471 65.9342 92.476 67.7343 91.2433C69.5344 90.0106 72.1353 89.3942 75.537 89.3942H78.8325V87.5239C78.8325 85.9087 78.3577 84.7681 77.408 84.1021C76.4725 83.422 75.1685 83.082 73.496 83.082C72.7589 83.082 71.8943 83.1741 70.9022 83.3583C69.91 83.5283 68.8328 83.8188 67.6705 84.2297L66.735 81.5305C68.1099 81.0204 69.3997 80.6591 70.6045 80.4465C71.8093 80.234 72.9574 80.1277 74.0488 80.1277C76.841 80.1277 78.9317 80.7795 80.3208 82.0831C81.724 83.3724 82.4256 85.1294 82.4256 87.3539V98.0869ZM73.1771 100.744C74.2826 100.744 75.3386 100.467 76.345 99.9147C77.3513 99.3479 78.1805 98.5686 78.8325 97.5768V91.8171H75.6008C73.1346 91.8171 71.3912 92.2422 70.3706 93.0923C69.3643 93.9425 68.8611 95.0831 68.8611 96.5141C68.8611 97.9027 69.2154 98.9583 69.9241 99.6809C70.647 100.389 71.7313 100.744 73.1771 100.744ZM91.8914 102.975V80.5953H94.9317L95.2081 83.6983C96.1152 82.5506 97.2491 81.6722 98.6098 81.0629C99.9847 80.4395 101.317 80.1277 102.607 80.1277C104.804 80.1277 106.398 80.7087 107.391 81.8705C108.397 83.0324 108.9 84.6476 108.9 86.7163V102.975H105.328V89.3517C105.328 87.8215 105.243 86.5888 105.073 85.6536C104.903 84.7043 104.549 84.0171 104.01 83.5921C103.472 83.1528 102.635 82.9332 101.501 82.9332C100.623 82.9332 99.7934 83.1245 99.0138 83.507C98.2484 83.8896 97.561 84.3713 96.9515 84.9523C96.3562 85.519 95.8601 86.0929 95.4632 86.6738V102.975H91.8914ZM151.942 103.464C149.631 103.464 147.619 102.904 145.904 101.785C144.203 100.666 142.884 98.9866 141.949 96.7479C141.013 94.5092 140.546 91.7038 140.546 88.3316C140.546 85.8095 140.879 83.6062 141.545 81.7218C142.225 79.8373 143.14 78.2645 144.288 77.0035C145.45 75.7425 146.761 74.8002 148.221 74.1768C149.695 73.5534 151.219 73.2416 152.792 73.2416C154.706 73.2416 156.293 73.5179 157.555 74.0705C158.816 74.6089 160.021 75.4024 161.169 76.4509L158.936 78.7675C158.044 77.9316 157.101 77.3152 156.109 76.9185C155.131 76.5218 154.032 76.3234 152.813 76.3234C151.75 76.3234 150.723 76.5288 149.73 76.9397C148.738 77.3506 147.845 78.0237 147.052 78.9588C146.272 79.8798 145.648 81.1054 145.181 82.6357C144.727 84.1659 144.5 86.0645 144.5 88.3316C144.5 91.1512 144.791 93.4465 145.372 95.2177C145.967 96.9888 146.839 98.2923 147.987 99.1283C149.149 99.9501 150.581 100.361 152.282 100.361C153.302 100.361 154.266 100.241 155.173 99.9997C156.095 99.7588 156.988 99.4117 157.852 98.9583V90.0318H152.09L151.644 86.9713H161.509V100.914C160.191 101.622 158.788 102.224 157.299 102.72C155.811 103.216 154.025 103.464 151.942 103.464ZM184.412 98.0869C184.412 98.9795 184.561 99.6313 184.858 100.042C185.156 100.453 185.617 100.758 186.24 100.956L185.368 103.464C184.405 103.336 183.561 103.032 182.838 102.55C182.116 102.054 181.591 101.31 181.265 100.318C180.457 101.353 179.451 102.139 178.246 102.678C177.041 103.202 175.709 103.464 174.249 103.464C172.01 103.464 170.245 102.833 168.955 101.572C167.665 100.311 167.02 98.6395 167.02 96.5566C167.02 94.2471 167.92 92.476 169.72 91.2433C171.521 90.0106 174.121 89.3942 177.523 89.3942H180.819V87.5239C180.819 85.9087 180.344 84.7681 179.394 84.1021C178.459 83.422 177.155 83.082 175.482 83.082C174.745 83.082 173.88 83.1741 172.888 83.3583C171.896 83.5283 170.819 83.8188 169.657 84.2297L168.721 81.5305C170.096 81.0204 171.386 80.6591 172.591 80.4465C173.795 80.234 174.944 80.1277 176.035 80.1277C178.827 80.1277 180.918 80.7795 182.307 82.0831C183.71 83.3724 184.412 85.1294 184.412 87.3539V98.0869ZM175.163 100.744C176.269 100.744 177.325 100.467 178.331 99.9147C179.337 99.3479 180.167 98.5686 180.819 97.5768V91.8171H177.587C175.121 91.8171 173.377 92.2422 172.357 93.0923C171.35 93.9425 170.847 95.0831 170.847 96.5141C170.847 97.9027 171.202 98.9583 171.91 99.6809C172.633 100.389 173.717 100.744 175.163 100.744ZM197.449 83.507C198.271 82.4302 199.214 81.6013 200.277 81.0204C201.354 80.4253 202.538 80.1277 203.828 80.1277C205.826 80.1277 207.442 80.6095 208.675 81.573C209.908 82.5365 210.808 83.8967 211.375 85.6536C211.942 87.3964 212.226 89.4367 212.226 91.7746C212.226 94.0275 211.886 96.0395 211.205 97.8106C210.525 99.5675 209.526 100.949 208.207 101.955C206.903 102.961 205.288 103.464 203.36 103.464C200.766 103.464 198.732 102.529 197.258 100.659L197.003 102.975H193.878V71.5839L197.449 71.1376V83.507ZM202.509 100.574C204.38 100.574 205.819 99.8509 206.825 98.4057C207.832 96.9604 208.335 94.743 208.335 91.7534C208.335 89.7981 208.137 88.1757 207.74 86.8863C207.343 85.5828 206.747 84.6122 205.954 83.9746C205.174 83.3228 204.21 82.997 203.062 82.997C201.815 82.997 200.716 83.3724 199.767 84.1234C198.831 84.8602 198.059 85.682 197.449 86.5888V97.6831C198.03 98.5615 198.76 99.2629 199.639 99.7871C200.532 100.311 201.489 100.574 202.509 100.574ZM256.203 80.5953V100.148H262.517V102.975H245.721V100.148H252.631V83.422H245.934V80.5953H256.203ZM253.354 70.1174C254.147 70.1174 254.778 70.3583 255.246 70.84C255.728 71.3218 255.969 71.9098 255.969 72.604C255.969 73.3267 255.728 73.9359 255.246 74.4318C254.778 74.9136 254.147 75.1544 253.354 75.1544C252.603 75.1544 251.986 74.9136 251.504 74.4318C251.022 73.9359 250.781 73.3267 250.781 72.604C250.781 71.9098 251.022 71.3218 251.504 70.84C251.986 70.3583 252.603 70.1174 253.354 70.1174ZM273.174 93.0498C273.244 94.7784 273.578 96.1953 274.173 97.3005C274.768 98.3915 275.555 99.1991 276.533 99.7234C277.511 100.233 278.574 100.489 279.722 100.489C280.87 100.489 281.905 100.318 282.826 99.9784C283.762 99.6384 284.718 99.1354 285.696 98.4694L287.376 100.829C286.327 101.65 285.129 102.295 283.783 102.763C282.45 103.23 281.083 103.464 279.679 103.464C277.511 103.464 275.661 102.975 274.13 101.998C272.6 101.02 271.43 99.6596 270.622 97.9168C269.829 96.1599 269.432 94.1267 269.432 91.8171C269.432 89.5501 269.836 87.5381 270.644 85.7812C271.451 84.0242 272.585 82.6427 274.045 81.6367C275.505 80.6307 277.227 80.1277 279.212 80.1277C281.097 80.1277 282.72 80.5741 284.08 81.4667C285.441 82.3452 286.483 83.6062 287.206 85.2498C287.943 86.8792 288.311 88.8275 288.311 91.0945C288.311 91.4771 288.304 91.8384 288.29 92.1784C288.276 92.5043 288.255 92.7948 288.226 93.0498H273.174ZM279.254 83.0607C277.596 83.0607 276.207 83.6487 275.087 84.8248C273.981 86.0008 273.351 87.8215 273.195 90.2869H284.867C284.825 87.8923 284.3 86.0929 283.294 84.8885C282.287 83.67 280.941 83.0607 279.254 83.0607ZM304.581 71.5839V97.4493C304.581 98.5544 304.921 99.3408 305.601 99.8084C306.296 100.262 307.189 100.489 308.28 100.489C308.96 100.489 309.605 100.418 310.215 100.276C310.824 100.134 311.434 99.943 312.043 99.7021L313 102.316C312.391 102.614 311.632 102.876 310.725 103.103C309.832 103.344 308.819 103.464 307.685 103.464C305.7 103.464 304.092 102.918 302.859 101.827C301.625 100.722 301.009 99.1991 301.009 97.258V74.4106H294.142V71.5839H304.581ZM511.545 63L505.728 42.5934L525 51.8132L516.182 54.9377L511.545 63ZM504.941 41.6648L526.298 51.882L516.526 55.3445L511.388 64.2789L504.941 41.6648ZM526 64H593V102H526V64ZM549.956 84.766H546.686L546.026 86.872H545L547.688 78.61H549.02L551.708 86.872H550.616L549.956 84.766ZM546.956 83.902H549.686L548.33 79.486L546.956 83.902ZM549.338 76L549.794 76.864L547.232 77.806L546.962 77.266L549.338 76ZM555.615 78.01V85.312C555.615 85.624 555.711 85.846 555.903 85.978C556.099 86.106 556.351 86.17 556.659 86.17C556.851 86.17 557.033 86.15 557.205 86.11C557.377 86.07 557.549 86.016 557.721 85.948L557.991 86.686C557.819 86.77 557.605 86.844 557.349 86.908C557.097 86.976 556.811 87.01 556.491 87.01C555.931 87.01 555.477 86.856 555.129 86.548C554.781 86.236 554.607 85.806 554.607 85.258V78.808H552.669V78.01H555.615ZM564.875 85.492C564.875 85.744 564.917 85.928 565.001 86.044C565.085 86.16 565.215 86.246 565.391 86.302L565.145 87.01C564.873 86.974 564.635 86.888 564.431 86.752C564.227 86.612 564.079 86.402 563.987 86.122C563.759 86.414 563.475 86.636 563.135 86.788C562.795 86.936 562.419 87.01 562.007 87.01C561.375 87.01 560.877 86.832 560.513 86.476C560.149 86.12 559.967 85.648 559.967 85.06C559.967 84.408 560.221 83.908 560.729 83.56C561.237 83.212 561.971 83.038 562.931 83.038H563.861V82.51C563.861 82.054 563.727 81.732 563.459 81.544C563.195 81.352 562.827 81.256 562.355 81.256C562.147 81.256 561.903 81.282 561.623 81.334C561.343 81.382 561.039 81.464 560.711 81.58L560.447 80.818C560.835 80.674 561.199 80.572 561.539 80.512C561.879 80.452 562.203 80.422 562.511 80.422C563.299 80.422 563.889 80.606 564.281 80.974C564.677 81.338 564.875 81.834 564.875 82.462V85.492ZM562.265 86.242C562.577 86.242 562.875 86.164 563.159 86.008C563.443 85.848 563.677 85.628 563.861 85.348V83.722H562.949C562.253 83.722 561.761 83.842 561.473 84.082C561.189 84.322 561.047 84.644 561.047 85.048C561.047 85.44 561.147 85.738 561.347 85.942C561.551 86.142 561.857 86.242 562.265 86.242ZM567.546 86.872V80.554H568.404L568.482 81.43C568.738 81.106 569.058 80.858 569.442 80.686C569.83 80.51 570.206 80.422 570.57 80.422C571.19 80.422 571.64 80.586 571.92 80.914C572.204 81.242 572.346 81.698 572.346 82.282V86.872H571.338V83.026C571.338 82.594 571.314 82.246 571.266 81.982C571.218 81.714 571.118 81.52 570.966 81.4C570.814 81.276 570.578 81.214 570.258 81.214C570.01 81.214 569.776 81.268 569.556 81.376C569.34 81.484 569.146 81.62 568.974 81.784C568.806 81.944 568.666 82.106 568.554 82.27V86.872H567.546ZM0.5 0.5H492.5V136.188H0.5V0.5Z" stroke="#FBBF24"/>
</svg>
